<svg width="43" height="35" viewBox="0 0 43 35" fill="none" xmlns="http://www.w3.org/2000/svg">
<g filter="url(#filter0_d)">
<path d="M5.09372 10.9374H37.9062C38.51 10.9374 38.9999 10.4474 38.9999 9.84372C38.9999 9.23995 38.5099 8.75 37.9062 8.75H5.09372C4.48995 8.75 4 9.24004 4 9.84372C4 10.4474 4.49004 10.9374 5.09372 10.9374Z" fill="white"/>
<path d="M37.9062 16.4062H5.09372C4.48995 16.4062 4 16.8963 4 17.5C4 18.1036 4.49004 18.5937 5.09372 18.5937H37.9062C38.51 18.5937 38.9999 18.1036 38.9999 17.5C38.9999 16.8963 38.51 16.4062 37.9062 16.4062Z" fill="white"/>
<path d="M37.9062 24.0625H16.0312C15.4274 24.0625 14.9375 24.5525 14.9375 25.1562C14.9375 25.76 15.4275 26.2499 16.0312 26.2499H37.9062C38.51 26.2499 38.9999 25.7599 38.9999 25.1562C39 24.5524 38.51 24.0625 37.9062 24.0625Z" fill="white"/>
</g>
<defs>
<filter id="filter0_d" x="0" y="0" width="43" height="43" filterUnits="userSpaceOnUse" color-interpolation-filters="sRGB">
<feFlood flood-opacity="0" result="BackgroundImageFix"/>
<feColorMatrix in="SourceAlpha" type="matrix" values="0 0 0 0 0 0 0 0 0 0 0 0 0 0 0 0 0 0 127 0"/>
<feOffset dy="4"/>
<feGaussianBlur stdDeviation="2"/>
<feColorMatrix type="matrix" values="0 0 0 0 0 0 0 0 0 0 0 0 0 0 0 0 0 0 0.5 0"/>
<feBlend mode="normal" in2="BackgroundImageFix" result="effect1_dropShadow"/>
<feBlend mode="normal" in="SourceGraphic" in2="effect1_dropShadow" result="shape"/>
</filter>
</defs>
</svg>
