<svg width="289" height="80" viewBox="0 0 289 80" fill="none" xmlns="http://www.w3.org/2000/svg">
<g filter="url(#filter0_d)">
<rect x="6.5" y="2.5" width="276" height="67" rx="12.5" fill="#C4C4C4" fill-opacity="0.35" stroke="white" stroke-width="5"/>
<path d="M59.2744 26.25H66.7994C69.4494 26.25 71.3494 26.675 72.4994 27.525C73.6494 28.3583 74.2244 29.675 74.2244 31.475C74.2244 33.6583 73.4827 35.1333 71.9994 35.9C70.6827 36.5667 68.8827 36.9 66.5994 36.9H64.3244V43.5L66.8744 44.075V45H59.2744V44.075L61.6994 43.5V27.75L59.2744 27.175V26.25ZM64.3244 35.9H67.1244C68.5411 35.9 69.5911 35.55 70.2744 34.85C70.9744 34.15 71.3244 33.0583 71.3244 31.575C71.3244 30.0917 70.9744 29 70.2744 28.3C69.5911 27.6 68.5411 27.25 67.1244 27.25H64.3244V35.9ZM76.6187 26.25H80.7938V43.525L82.8188 44.075V45H76.4688V44.075L78.4188 43.55V27.45L76.6187 27.15V26.25ZM97.1125 45H92.7125V42.475C91.9292 44.3083 90.5542 45.225 88.5875 45.225C87.2708 45.225 86.2708 44.9417 85.5875 44.375C84.9042 43.7917 84.5625 42.9833 84.5625 41.95C84.5625 40.4833 85.2042 39.4333 86.4875 38.8C87.7875 38.15 89.8458 37.8 92.6625 37.75V36.675C92.6625 35.4917 92.4208 34.6917 91.9375 34.275C91.4542 33.8417 90.7375 33.625 89.7875 33.625C88.8375 33.625 88.0125 33.8417 87.3125 34.275L86.4875 36.75H85.5625V33.925C85.9792 33.575 86.5542 33.2833 87.2875 33.05C88.0208 32.8 88.8208 32.675 89.6875 32.675C91.4542 32.675 92.7792 33.0167 93.6625 33.7C94.5625 34.3667 95.0125 35.5583 95.0125 37.275V43.5L97.1125 44.075V45ZM89.2375 44.175C90.3042 44.175 91.1375 43.7667 91.7375 42.95C92.3542 42.1167 92.6625 40.675 92.6625 38.625C89.7958 38.625 88.0458 39.0667 87.4125 39.95C87.1125 40.3667 86.9625 40.9833 86.9625 41.8C86.9625 42.6167 87.1375 43.2167 87.4875 43.6C87.8542 43.9833 88.4375 44.175 89.2375 44.175ZM99.7883 32.85H103.838V36.375C104.505 33.9083 105.988 32.675 108.288 32.675C109.638 32.675 110.638 33.0917 111.288 33.925C111.938 34.7417 112.263 35.875 112.263 37.325V43.525L114.188 44.075V45H108.263V44.075L109.938 43.575V37.625C109.938 36.275 109.755 35.3083 109.388 34.725C109.038 34.1417 108.48 33.85 107.713 33.85C106.53 33.85 105.613 34.4167 104.963 35.55C104.33 36.6667 104.013 38.35 104.013 40.6V43.575L105.763 44.075V45H99.7883V44.075L101.638 43.55V34.1L99.7883 33.75V32.85ZM131.781 32.85H137.031V33.8L135.056 34.1L129.856 46.9C129.14 48.6 128.548 49.7083 128.081 50.225C127.615 50.7417 126.848 51 125.781 51H124.681V47.35H125.606L126.231 49.6C126.748 49.5667 127.123 49.425 127.356 49.175C127.59 48.9417 127.765 48.7583 127.881 48.625C127.998 48.4917 128.131 48.25 128.281 47.9C128.448 47.5667 128.565 47.3083 128.631 47.125C128.715 46.9417 128.848 46.6083 129.031 46.125C129.215 45.6417 129.356 45.2833 129.456 45.05L124.681 34.25L122.606 33.8V32.875H128.956V33.8L127.256 34.15L130.681 42.25L133.706 34.125L131.781 33.8V32.85ZM148.392 39.025C148.392 37.225 148.117 35.8917 147.567 35.025C147.017 34.1417 146.117 33.7 144.867 33.7C143.634 33.7 142.717 34.125 142.117 34.975C141.534 35.8083 141.242 37.15 141.242 39C141.242 40.85 141.534 42.1833 142.117 43C142.7 43.8 143.592 44.2 144.792 44.2C146.009 44.2 146.909 43.7917 147.492 42.975C148.092 42.1417 148.392 40.825 148.392 39.025ZM138.717 39.025C138.717 37.0583 139.275 35.5083 140.392 34.375C141.509 33.225 142.984 32.65 144.817 32.65C146.667 32.65 148.142 33.2083 149.242 34.325C150.342 35.4417 150.892 37 150.892 39C150.892 41 150.342 42.5417 149.242 43.625C148.142 44.6917 146.659 45.225 144.792 45.225C142.942 45.225 141.467 44.6833 140.367 43.6C139.267 42.5167 138.717 40.9917 138.717 39.025ZM153.143 32.875H157.293V40.35C157.293 41.6667 157.459 42.6 157.793 43.15C158.143 43.7 158.709 43.975 159.493 43.975C160.659 43.975 161.576 43.425 162.243 42.325C162.909 41.225 163.243 39.5417 163.243 37.275V34.125L161.418 33.8V32.875H165.568V43.5L167.543 44.075V45H163.393V41.625C162.959 42.8083 162.351 43.7167 161.568 44.35C160.801 44.9667 159.959 45.275 159.043 45.275C156.309 45.275 154.943 43.775 154.943 40.775V34.125L153.143 33.8V32.875ZM169.462 32.875H173.612V36.425C173.945 35.425 174.462 34.5917 175.162 33.925C175.862 33.2417 176.712 32.9 177.712 32.9C178.329 32.9 179.07 33.125 179.937 33.575V36.575H178.962L178.187 34.525C177.87 34.3583 177.512 34.275 177.112 34.275C176.379 34.275 175.637 34.7083 174.887 35.575C174.154 36.425 173.787 37.3417 173.787 38.325V43.55L175.637 44.075V45H169.512V44.075L171.412 43.55V34.125L169.462 33.775V32.875ZM192.2 32.875H195.85V33.925H192.2V41.675C192.2 42.6583 192.316 43.3417 192.55 43.725C192.783 44.0917 193.158 44.275 193.675 44.275C194.191 44.275 194.891 44.15 195.775 43.9V44.825C194.608 45.1417 193.658 45.3 192.925 45.3C190.891 45.3 189.875 44.075 189.875 41.625V33.925H187.725V32.875H189.875V30.3L192.2 28.975V32.875ZM197.611 32.875H201.761V36.425C202.095 35.425 202.611 34.5917 203.311 33.925C204.011 33.2417 204.861 32.9 205.861 32.9C206.478 32.9 207.22 33.125 208.086 33.575V36.575H207.111L206.336 34.525C206.02 34.3583 205.661 34.275 205.261 34.275C204.528 34.275 203.786 34.7083 203.036 35.575C202.303 36.425 201.936 37.3417 201.936 38.325V43.55L203.786 44.075V45H197.661V44.075L199.561 43.55V34.125L197.611 33.775V32.875ZM209.471 32.875H213.521V43.575L215.271 44.075V45H209.346V44.075L211.171 43.525V34.075L209.471 33.775V32.875ZM210.296 27.55C210.296 27.1 210.437 26.75 210.721 26.5C211.021 26.2333 211.412 26.1 211.896 26.1C212.396 26.1 212.796 26.2333 213.096 26.5C213.396 26.75 213.546 27.1 213.546 27.55C213.546 27.9833 213.404 28.3333 213.121 28.6C212.837 28.8667 212.437 29 211.921 29C211.421 29 211.021 28.875 210.721 28.625C210.437 28.3583 210.296 28 210.296 27.55ZM217.077 32.875H221.127V35.95C221.894 33.7667 223.319 32.675 225.402 32.675C226.986 32.675 228.252 33.225 229.202 34.325C230.169 35.425 230.652 36.975 230.652 38.975C230.652 40.9583 230.169 42.5083 229.202 43.625C228.252 44.725 226.994 45.275 225.427 45.275C223.411 45.275 222.027 44.2833 221.277 42.3V51.4L223.102 51.95V52.875H217.027V51.95L218.902 51.4V34.075L217.077 33.75V32.875ZM225.052 33.775C223.969 33.775 223.069 34.2333 222.352 35.15C221.652 36.0667 221.302 37.3083 221.302 38.875C221.302 40.425 221.644 41.7 222.327 42.7C223.011 43.6833 223.919 44.175 225.052 44.175C227.086 44.175 228.102 42.4417 228.102 38.975C228.102 35.5083 227.086 33.775 225.052 33.775Z" fill="white"/>
</g>
<defs>
<filter id="filter0_d" x="0" y="0" width="289" height="80" filterUnits="userSpaceOnUse" color-interpolation-filters="sRGB">
<feFlood flood-opacity="0" result="BackgroundImageFix"/>
<feColorMatrix in="SourceAlpha" type="matrix" values="0 0 0 0 0 0 0 0 0 0 0 0 0 0 0 0 0 0 127 0"/>
<feOffset dy="4"/>
<feGaussianBlur stdDeviation="2"/>
<feColorMatrix type="matrix" values="0 0 0 0 0 0 0 0 0 0 0 0 0 0 0 0 0 0 0.25 0"/>
<feBlend mode="normal" in2="BackgroundImageFix" result="effect1_dropShadow"/>
<feBlend mode="normal" in="SourceGraphic" in2="effect1_dropShadow" result="shape"/>
</filter>
</defs>
</svg>
