<svg width="155" height="34" viewBox="0 0 155 34" fill="none" xmlns="http://www.w3.org/2000/svg">
<g filter="url(#filter0_d)">
<path d="M4.42 0.499998H8.305L10.825 19.505H10.895L13.415 0.499998H16.95L13.24 25H8.13L4.42 0.499998ZM18.7993 0.499998H22.6493V25H18.7993V0.499998ZM30.5377 25.35C28.671 25.35 27.2593 24.825 26.3027 23.775C25.346 22.7017 24.8677 21.1733 24.8677 19.19V17.79H28.5077V19.47C28.5077 21.0567 29.1727 21.85 30.5027 21.85C31.156 21.85 31.646 21.6633 31.9727 21.29C32.3227 20.8933 32.4977 20.2633 32.4977 19.4C32.4977 18.3733 32.2643 17.475 31.7977 16.705C31.331 15.9117 30.4677 14.9667 29.2077 13.87C27.621 12.47 26.5127 11.21 25.8827 10.09C25.2527 8.94667 24.9377 7.66333 24.9377 6.24C24.9377 4.30333 25.4277 2.81 26.4077 1.76C27.3877 0.686665 28.811 0.149999 30.6777 0.149999C32.521 0.149999 33.9093 0.686665 34.8427 1.76C35.7993 2.81 36.2777 4.32667 36.2777 6.31V7.325H32.6377V6.065C32.6377 5.225 32.4743 4.61833 32.1477 4.245C31.821 3.84833 31.3427 3.65 30.7127 3.65C29.4293 3.65 28.7877 4.43167 28.7877 5.995C28.7877 6.88167 29.021 7.71 29.4877 8.48C29.9777 9.25 30.8527 10.1833 32.1127 11.28C33.7227 12.68 34.831 13.9517 35.4377 15.095C36.0443 16.2383 36.3477 17.58 36.3477 19.12C36.3477 21.1267 35.846 22.6667 34.8427 23.74C33.8627 24.8133 32.4277 25.35 30.5377 25.35ZM38.5551 0.499998H42.4051V25H38.5551V0.499998ZM48.2985 4H44.2735V0.499998H56.1735V4H52.1485V25H48.2985V4ZM63.643 0.499998H68.473L72.218 15.165H72.288V0.499998H75.718V25H71.763L67.143 7.115H67.073V25H63.643V0.499998ZM84.1445 25.35C82.2545 25.35 80.8079 24.8133 79.8045 23.74C78.8012 22.6667 78.2995 21.15 78.2995 19.19V6.31C78.2995 4.35 78.8012 2.83333 79.8045 1.76C80.8079 0.686665 82.2545 0.149999 84.1445 0.149999C86.0345 0.149999 87.4812 0.686665 88.4845 1.76C89.4879 2.83333 89.9895 4.35 89.9895 6.31V19.19C89.9895 21.15 89.4879 22.6667 88.4845 23.74C87.4812 24.8133 86.0345 25.35 84.1445 25.35ZM84.1445 21.85C85.4745 21.85 86.1395 21.045 86.1395 19.435V6.065C86.1395 4.455 85.4745 3.65 84.1445 3.65C82.8145 3.65 82.1495 4.455 82.1495 6.065V19.435C82.1495 21.045 82.8145 21.85 84.1445 21.85ZM92.5932 0.499998H98.2982C100.282 0.499998 101.728 0.966665 102.638 1.9C103.548 2.81 104.003 4.22167 104.003 6.135V7.64C104.003 10.1833 103.163 11.7933 101.483 12.47V12.54C102.417 12.82 103.07 13.3917 103.443 14.255C103.84 15.1183 104.038 16.2733 104.038 17.72V22.025C104.038 22.725 104.062 23.2967 104.108 23.74C104.155 24.16 104.272 24.58 104.458 25H100.538C100.398 24.6033 100.305 24.23 100.258 23.88C100.212 23.53 100.188 22.9 100.188 21.99V17.51C100.188 16.39 100.002 15.6083 99.6282 15.165C99.2782 14.7217 98.6599 14.5 97.7732 14.5H96.4432V25H92.5932V0.499998ZM97.8432 11C98.6132 11 99.1849 10.8017 99.5582 10.405C99.9549 10.0083 100.153 9.34333 100.153 8.41V6.52C100.153 5.63333 99.9899 4.99167 99.6632 4.595C99.3599 4.19833 98.8699 4 98.1932 4H96.4432V11H97.8432ZM105.731 0.499998H109.441L111.156 19.33H111.226L113.046 0.499998H117.246L119.066 19.33H119.136L120.851 0.499998H124.176L121.691 25H116.896L115.146 8.48H115.076L113.326 25H108.216L105.731 0.499998ZM128.62 0.499998H133.835L137.825 25H133.975L133.275 20.135V20.205H128.9L128.2 25H124.63L128.62 0.499998ZM132.82 16.88L131.105 4.77H131.035L129.355 16.88H132.82ZM141.621 14.57L136.966 0.499998H141.061L143.686 9.495H143.756L146.381 0.499998H150.126L145.471 14.57V25H141.621V14.57Z" fill="white"/>
</g>
<defs>
<filter id="filter0_d" x="0.419983" y="0.150024" width="153.706" height="33.2" filterUnits="userSpaceOnUse" color-interpolation-filters="sRGB">
<feFlood flood-opacity="0" result="BackgroundImageFix"/>
<feColorMatrix in="SourceAlpha" type="matrix" values="0 0 0 0 0 0 0 0 0 0 0 0 0 0 0 0 0 0 127 0"/>
<feOffset dy="4"/>
<feGaussianBlur stdDeviation="2"/>
<feColorMatrix type="matrix" values="0 0 0 0 0 0 0 0 0 0 0 0 0 0 0 0 0 0 0.25 0"/>
<feBlend mode="normal" in2="BackgroundImageFix" result="effect1_dropShadow"/>
<feBlend mode="normal" in="SourceGraphic" in2="effect1_dropShadow" result="shape"/>
</filter>
</defs>
</svg>
